<svg width="215" height="48" viewBox="0 0 215 48" fill="none" xmlns="http://www.w3.org/2000/svg">
<g id="Frame" clip-path="url(#clip0_686_1398)">
<g id="Group">
<path id="Vector" d="M5.30224 14.6542C4.90118 17.2452 3.29956 19.089 0.5 20.1869V20.0374C2.0007 19.1402 2.90112 18.1914 3.20126 17.1963C1.79886 17.295 0.95021 17.5447 0.65007 17.9439C0.849288 16.7477 1.19858 15.8994 1.70056 15.4019C1.89978 15.2011 3.10034 14.9533 5.30224 14.6542ZM77.9362 22.5794C77.9362 24.0748 77.636 25.369 77.0358 26.4665C76.4355 27.7615 75.5351 28.4108 74.3345 28.4108C73.5328 28.4108 72.9325 28.3589 72.5337 28.2617C72.5337 28.7593 72.5337 29.2568 72.5337 29.757C72.5337 31.7499 72.2827 32.9951 71.7833 33.4953C67.7806 38.0793 64.0288 40.3738 60.528 40.3738C59.0273 40.3738 57.8759 39.6751 57.0764 38.28C56.3752 37.1817 56.0259 35.9361 56.0259 34.5417C56.0259 32.2471 56.5744 29.4064 57.6767 26.0183C56.4762 26.9151 54.4735 28.7589 51.6739 31.551C48.5716 34.5417 46.3205 36.6355 44.9208 37.8314C42.3178 39.8247 40.2168 40.8221 38.6178 40.8221C37.4172 40.8221 36.3668 40.2475 35.4663 39.1024C34.5659 37.9555 34.1157 36.6348 34.1157 35.1394C34.1157 33.3447 34.716 31.0505 35.9165 28.2613C35.7147 28.3593 35.4663 28.4105 35.1662 28.4105C34.465 28.4105 33.8647 28.3585 33.3654 28.2613C33.3654 28.7589 33.3654 29.2564 33.3654 29.7566C33.3654 31.7495 33.1635 32.9454 32.7651 33.3454C28.0611 37.9297 24.2602 40.2239 21.3597 40.2239C19.859 40.2239 18.7076 39.6254 17.9081 38.4288C17.1064 37.2333 16.7076 35.7869 16.7076 34.0923C16.7076 33.4942 16.9559 32.172 17.4579 30.1297C17.9573 28.0849 18.2083 26.3166 18.2083 24.8213C18.2083 23.625 18.0582 22.4774 17.7581 21.3821C16.5575 21.083 15.3569 20.2348 14.1564 18.84C12.9558 17.443 12.1541 16.7462 11.7553 16.7462C11.2536 16.7462 10.4538 17.5925 9.35414 19.2886C8.55201 20.5828 7.85344 21.8796 7.25316 23.1761C9.55336 24.3723 10.7048 26.9634 10.7048 30.9514H9.95442C8.85253 30.4531 7.80166 29.9065 6.80294 29.3084C5.80198 28.6101 5.30224 27.563 5.30224 26.1686C2.99979 27.2647 1.85063 28.76 1.85063 30.6546C1.85063 30.8531 2.82609 33.145 4.777 37.5327C6.72791 41.9178 7.70337 45.4067 7.70337 48H7.40323C7.20138 46.4037 6.05259 43.4624 3.95161 39.1768C2.04985 35.1892 1.10028 32.2991 1.10028 30.5047C1.10028 27.911 2.65013 25.5185 5.75245 23.3271C6.15127 22.0303 7.15223 20.2852 8.75386 18.0935C10.5547 15.4998 12.004 14.2056 13.1059 14.2056C13.5047 14.2056 14.4565 15.1028 15.9572 16.8972C15.7554 16.397 15.6571 15.8994 15.6571 15.4019C15.6571 14.105 16.1073 13.0093 17.0077 12.1122C17.9081 11.215 19.0078 10.766 20.3093 10.766C21.3083 10.766 23.2593 11.2385 26.162 12.1869C29.0625 13.1327 31.6137 13.6075 33.8156 13.6075L32.0147 16.5981C30.6127 16.7966 28.3616 17.6938 25.2616 19.2897C22.5603 20.6841 20.3093 21.3832 18.5084 21.3832C18.4075 21.3832 18.2083 21.3832 17.9081 21.3832C18.4079 22.7779 18.6585 24.2733 18.6585 25.8692C18.6585 27.1637 18.4825 28.6101 18.1332 30.2056C17.7813 31.8 17.608 32.6964 17.608 32.8976C17.608 36.0867 18.9069 37.6822 21.5098 37.6822C23.4093 37.6822 25.6109 36.6849 28.1129 34.6916C29.7119 33.3948 31.2126 32.0497 32.615 30.6546C32.615 29.9559 32.2139 28.8598 31.4144 27.3645C31.0134 26.4673 30.5632 25.5701 30.0638 24.6733L31.1143 22.1312C32.0147 23.526 32.6642 24.4722 33.0652 24.972C33.7642 25.6684 34.5145 26.0194 35.3163 26.0194C36.3154 26.0194 37.1171 25.6202 37.7174 24.8232C37.7174 23.3279 37.6165 21.8815 37.4173 20.4864L34.8661 4.63626C34.7651 3.64075 34.5659 2.89308 34.2658 2.39327L35.0161 0.299439L37.7174 5.23364V6.13084L36.3668 4.78505C36.2658 4.98617 36.2658 5.18467 36.3668 5.38355L38.6178 20.486C38.7161 20.8834 38.7679 21.5824 38.7679 22.5798C38.7679 25.5705 37.9658 27.4138 36.3668 28.1125C35.3654 30.3043 34.8661 32.2482 34.8661 33.9443C34.8661 34.8415 35.2153 35.6875 35.9165 36.4871C36.716 37.3839 37.666 37.8329 38.7679 37.8329C40.5687 37.8329 42.8689 36.4871 45.6711 33.7955C48.1709 31.5009 50.6729 29.1604 53.1746 26.7675C55.0741 25.1708 56.9264 23.8258 58.7272 22.7297C58.2252 22.5293 57.4749 21.9821 56.4762 21.0852C55.0737 19.9869 54.3752 18.7413 54.3752 17.3469C54.3752 15.0527 55.6249 13.9077 58.1269 13.9077C62.9292 13.9077 68.1302 14.7533 73.7342 16.4497L71.7833 19.4404C69.9825 20.0389 66.7301 21.3331 62.0287 23.3282C62.5281 24.1252 63.0792 26.0198 63.6795 29.0105C60.9783 29.0105 59.6276 28.2108 59.6276 26.6179C59.6276 26.4172 59.6768 26.0688 59.7777 25.5712C59.8764 25.0714 59.9278 24.7226 59.9278 24.5245C59.5267 24.8236 58.9268 25.2202 58.1269 25.72C57.1256 28.9092 56.6262 31.3024 56.6262 32.8979C56.6262 36.0871 57.9769 37.6826 60.6781 37.6826C63.5786 37.6826 67.2812 35.3394 71.7833 30.655C71.6824 29.9563 71.2817 28.8602 70.5827 27.3649C70.0811 26.566 69.6309 25.72 69.2321 24.8228L70.1325 22.1312C71.033 23.6265 71.7315 24.5727 72.2335 24.972C72.8338 25.6684 73.5841 26.0194 74.4846 26.0194C75.4833 26.0194 76.2854 25.6202 76.8857 24.8232C76.7848 23.3279 76.6347 21.8815 76.4355 20.4864L74.0344 4.78542C73.8325 3.68972 73.6333 2.89271 73.4341 2.39327L74.1844 0.299439L76.7356 5.23402V6.13121L75.5351 4.78505C75.4341 5.08449 75.4341 5.33458 75.5351 5.53271L77.7861 20.486C77.8848 20.883 77.9362 21.5817 77.9362 22.5794ZM10.8548 9.27103C10.8548 10.9649 10.3037 11.8135 9.20407 11.8135C8.20272 11.8135 7.70337 11.2639 7.70337 10.1686C7.70337 9.46991 7.85344 8.6243 8.15358 7.62654C8.75386 6.43028 9.054 5.73383 9.054 5.53271C9.25321 6.33234 9.30274 6.87888 9.20407 7.17757C10.3037 7.7757 10.8548 8.47439 10.8548 9.27103ZM10.4046 9.86916C10.0036 9.36935 9.40366 9.02056 8.60379 8.82243C8.20272 9.21981 8.00351 9.46916 8.00351 9.57009C8.00351 10.1682 8.35279 10.4673 9.054 10.4673C9.55336 10.4673 10.0036 10.2662 10.4046 9.86916ZM14.4565 34.5421L13.406 36.1862C12.8057 36.3847 12.1541 36.535 11.4551 36.6351C10.3529 37.0325 9.80435 37.4811 9.80435 37.9813C10.3041 39.9742 10.5547 41.3693 10.5547 42.1679C10.5547 43.9626 10.5033 45.0093 10.4046 45.3077C10.4046 44.2093 10.2028 42.7656 9.80435 40.9712C9.40366 39.1761 9.20407 38.0295 9.20407 37.532C9.20407 36.6351 9.52747 36.0366 10.1795 35.7376C10.829 35.4378 11.4551 35.188 12.0554 34.9899C11.6547 34.6901 11.305 34.5413 11.0049 34.5413L10.1045 35.289V34.5413C10.4046 34.1417 10.653 33.7679 10.8548 33.4198C11.0541 33.0692 11.305 32.8968 11.6052 32.8968C12.2055 32.8972 13.155 33.4437 14.4565 34.5421ZM15.6571 27.0654L14.4565 29.4572L11.9053 28.2617L12.8057 26.1682L10.5547 24.9716L11.6052 22.5798L14.3065 23.7761L13.256 25.8692L15.6571 27.0654ZM28.413 15.5514C27.8128 15.4505 26.4107 15.1028 24.2111 14.5043C22.4102 13.9065 21.0078 13.6075 20.0091 13.6075C17.7063 13.6075 16.5575 14.4535 16.5575 16.1495C16.5575 16.8456 16.8062 17.5443 17.3079 18.243C17.7067 18.6404 18.2083 18.8415 18.8086 18.8415C20.2083 18.8415 21.81 18.4419 23.6108 17.6452C26.5113 16.348 28.1129 15.6493 28.413 15.5514ZM29.7637 26.9159C28.263 30.7032 26.3612 32.5981 24.061 32.5981C22.3588 32.5981 21.5098 31.7993 21.5098 30.2056C21.5098 28.9088 22.6095 27.5637 24.8114 26.1686C24.4107 25.8692 24.0096 25.7196 23.6108 25.7196C23.1092 25.7196 22.6095 25.9675 22.1101 26.4673V25.8692C22.6095 24.7708 23.3107 24.2243 24.2111 24.2243C25.7118 24.2243 26.9123 24.4228 27.8128 24.8232L26.0119 26.4669C25.3107 26.6654 24.5345 27.1144 23.6858 27.8135C22.8346 28.5095 22.4102 29.1077 22.4102 29.6078C22.4102 30.505 23.2097 30.9536 24.8114 30.9536C25.9114 30.9536 27.011 30.3555 28.1129 29.1596C28.6123 28.3596 29.1634 27.612 29.7637 26.9159ZM32.4649 6.57944C32.4649 7.77533 32.0639 8.37383 31.2644 8.37383C30.8633 8.37383 30.4623 8.17533 30.0638 7.77533C29.7637 8.57495 29.3135 8.97159 28.7132 8.97159C28.012 8.97159 27.6627 8.52299 27.6627 7.62579C27.6627 7.02729 27.6627 6.42953 27.6627 5.8314C27.4608 6.03252 27.2125 6.33121 26.9123 6.72822V6.13009C27.1116 5.63252 27.6113 4.98505 28.413 4.18617C28.1129 6.27963 28.3121 7.32635 29.0133 7.32635C29.5127 7.32635 29.7637 6.97794 29.7637 6.27925C29.7637 5.98019 29.6628 5.38243 29.4635 4.48486L29.9137 3.58879C30.2139 4.0886 30.4135 4.83626 30.514 5.83178C30.514 6.53047 30.7628 6.8785 31.2644 6.8785C31.5645 6.8785 31.7146 6.63065 31.7146 6.13084L31.2644 4.18692L31.8647 3.14019C32.2635 4.43701 32.4649 5.5843 32.4649 6.57944ZM41.0189 32.2991C40.918 33.6935 40.4187 34.3929 39.5182 34.3929C38.6178 34.3929 38.1676 33.9439 38.1676 33.0467C38.1676 31.7499 38.8666 30.2546 40.2686 28.5607C39.5674 30.1544 39.2181 31.3013 39.2181 32C39.2181 32.6957 39.4665 33.0467 39.9684 33.0467C40.4678 33.0467 40.7679 32.7966 40.8689 32.2991H41.0189ZM44.0203 23.6262C44.0203 25.7193 43.7693 27.3133 43.27 28.4112H42.9698C43.0681 26.2172 42.9698 23.9252 42.6697 21.5331L39.9684 4.63589C39.8675 3.64037 39.6683 2.89271 39.3682 2.3929L40.1185 0.299065L42.6697 5.23364V6.13084L41.4691 4.78467C41.3682 4.98579 41.3682 5.1843 41.4691 5.38318L43.8703 21.3832C43.9686 21.8807 44.0203 22.6284 44.0203 23.6262ZM50.7735 4.93458C50.7735 5.33383 50.6234 5.78318 50.3233 6.28037C50.0231 5.98131 49.7721 5.83215 49.5729 5.83215C49.0713 5.83215 48.6725 6.53084 48.3724 7.92561C48.1705 8.8228 48.0205 9.81832 47.9222 10.9163C47.622 10.117 47.1204 9.07028 46.4215 7.77607C46.3205 8.27664 46.0204 8.52374 45.521 8.52374C44.7189 8.52374 44.3205 8.07551 44.3205 7.17794C44.3205 6.08187 44.6701 5.53308 45.371 5.53308C46.2714 5.53308 47.0709 6.58019 47.7721 8.67327C48.3724 5.08449 49.1227 3.29009 50.0231 3.29009C50.5225 3.28972 50.7735 3.83888 50.7735 4.93458ZM50.9236 13.3084C50.5225 15.9996 48.9726 17.8434 46.2714 18.8411L46.1213 18.6916C47.622 17.7948 48.5224 16.8456 48.8226 15.8505C47.4205 15.9488 46.5715 16.1985 46.2714 16.5981C46.4706 15.4019 46.8199 14.5536 47.3219 14.0561C47.5211 13.8553 48.7217 13.6075 50.9236 13.3084ZM50.7735 22.5794L49.5729 24.9712L47.0217 23.7757L48.2223 21.3832L50.7735 22.5794ZM53.4748 38.5794C53.4748 39.9742 52.9728 40.6733 51.974 40.6733C51.0736 40.6733 50.6234 40.225 50.6234 39.3271C50.6234 38.0303 51.322 36.535 52.7244 34.8411H52.8745C52.0723 36.4348 51.6739 37.5821 51.6739 38.2804C51.6739 38.9764 51.9226 39.3271 52.4243 39.3271C52.924 39.3271 53.2238 39.0774 53.3247 38.5794H53.4748ZM56.176 6.57944C56.176 7.77533 55.9254 9.1215 55.4257 10.6168C55.5243 9.81794 55.5757 8.92299 55.5757 7.92523C55.5757 6.13084 55.0246 4.73607 53.925 3.73832L54.075 1.94393C54.774 2.34318 55.2992 3.04224 55.6508 4.03738C56.0001 5.03514 56.176 5.88299 56.176 6.57944ZM68.6318 18.3925C65.8297 17.1963 62.5773 16.5981 58.8773 16.5981C57.0764 16.5981 55.8759 16.7966 55.2756 17.1963C55.2756 17.3948 55.925 17.9675 57.2265 18.9163C58.5254 19.8621 59.6276 20.7854 60.528 21.6822C62.629 20.6845 65.3303 19.5888 68.6318 18.3925ZM71.9334 1.49533C71.9334 2.09383 71.7574 2.79252 71.4081 3.58916C71.0562 4.38804 70.6319 4.98579 70.1325 5.38355C70.7328 4.18729 71.033 3.34168 71.033 2.8415C65.9306 4.43738 61.2784 7.12897 57.0764 10.9163C57.1751 10.4161 57.2757 9.9185 57.3766 9.42093C59.0765 7.7271 61.3534 6.13122 64.2048 4.63589C67.0561 3.14019 69.6309 2.09346 71.9334 1.49533ZM68.1816 27.8131C68.3808 28.6101 68.1816 29.0583 67.5813 29.1593C67.2812 29.2576 66.831 29.0583 66.2307 28.5607C65.8297 29.2568 65.1802 30.2049 64.2798 31.4022C63.1775 32.6964 61.7286 33.4961 59.9278 33.7944L58.5771 34.0935C59.9769 33.3948 61.5271 32.3974 63.2293 31.1028C64.6291 30.0045 65.5787 28.9088 66.0806 27.8131C66.4795 27.0138 66.831 26.5656 67.1311 26.4665C67.6305 26.3671 67.9798 26.8153 68.1816 27.8131ZM69.3822 10.0187C69.3822 11.215 68.9811 11.8135 68.1816 11.8135C67.7806 11.8135 67.3799 11.5634 66.9811 11.0658C66.6809 11.8624 66.2307 12.2617 65.6304 12.2617C65.0302 12.2617 64.6782 11.8628 64.5799 11.0658C64.5799 10.3671 64.5799 9.71963 64.5799 9.12187C64.3785 9.42093 64.1793 9.72 63.9797 10.0187V9.57009C64.078 9.07028 64.5282 8.42505 65.3303 7.62617C65.0302 9.61944 65.2294 10.6168 65.9306 10.6168C66.4303 10.6168 66.6809 10.3178 66.6809 9.71963C66.6809 9.42056 66.58 8.77383 66.3808 7.7757L66.9811 7.02804C67.1803 7.42766 67.3303 8.12636 67.4313 9.12187C67.4313 9.81832 67.68 10.1686 68.1816 10.1686C68.4818 10.1686 68.6318 9.96748 68.6318 9.57047C68.6318 9.46953 68.4818 8.8228 68.1816 7.62654L68.7819 6.43028C69.1807 7.72673 69.3822 8.92299 69.3822 10.0187ZM67.8815 28.2617C67.4804 27.6632 67.0302 27.514 66.5309 27.8131C67.1311 28.2101 67.5813 28.3596 67.8815 28.2617ZM81.5379 34.3925C81.5379 35.3877 81.2377 35.8879 80.6374 35.8879C80.2364 35.8879 79.7862 35.7387 79.2868 35.4389C77.5843 38.5286 74.4328 40.0239 69.8324 39.9249H69.6823V39.7757C74.1844 38.6774 77.235 37.1331 78.8366 35.1406C78.335 34.9394 78.0863 34.6404 78.0863 34.2437C78.0863 33.9439 78.2363 33.594 78.5365 33.1963C78.8366 32.7974 79.085 32.5981 79.2868 32.5981L79.1367 32L79.2868 31.8505C79.486 31.8505 79.8353 32.049 80.3373 32.4486V32.5981C81.1368 33.4953 81.5379 34.0935 81.5379 34.3925ZM83.1886 23.6262C83.1886 25.7193 82.938 27.3133 82.4383 28.4112H82.1381C82.2364 26.2172 82.0864 23.9252 81.6879 21.5331L79.1367 4.63589C78.9349 3.64037 78.7357 2.89271 78.5365 2.3929L79.2868 0.299065L81.838 5.23364V6.13084L80.6374 4.78467C80.5365 4.98579 80.4874 5.1843 80.4874 5.38318L83.0386 21.3832C83.1372 21.8807 83.1886 22.6284 83.1886 23.6262ZM79.8871 33.6449C79.8871 33.4437 79.7862 33.3454 79.587 33.3454C79.1863 33.3454 78.8857 33.495 78.6865 33.794C78.8857 34.0931 79.1863 34.2916 79.587 34.3925C79.587 34.2916 79.6361 34.1679 79.737 34.0187C79.8353 33.8692 79.8871 33.7428 79.8871 33.6449ZM214.5 28.1121C214.5 29.5069 214.174 30.6546 213.524 31.5514C212.872 32.4479 212.148 32.8972 211.348 32.8972C209.847 32.8972 208.797 31.9484 208.197 30.0557C207.796 31.9484 206.945 32.8972 205.645 32.8972C204.445 32.8972 203.643 32.0976 203.245 30.505C202.443 32.3978 201.043 33.3462 199.043 33.3462C198.342 33.3462 197.768 33.0707 197.317 32.5241C196.867 31.975 196.641 31.3507 196.641 30.655C196.641 30.3555 196.641 30.1058 196.641 29.9073C182.535 34.2923 168.128 36.4871 153.421 36.4871C146.316 36.4871 139.364 35.8886 132.561 34.692C126.057 33.6946 121.205 32.3488 118.005 30.655C118.005 32.0493 117.952 33.4445 117.854 34.8415H117.555C116.354 34.0426 115.604 33.0964 115.304 32.0004C115.203 31.2007 115.128 30.4531 115.079 29.7574C115.026 29.0587 114.402 28.7099 113.203 28.7099C112.1 28.7099 110.225 30.3043 107.575 33.4957C104.923 36.6845 102.897 38.2807 101.497 38.2807C100.695 38.2807 99.9965 37.9069 99.3962 37.1593C98.7959 36.4116 98.4958 35.3884 98.4958 34.0938C98.4958 33.3951 98.6459 32.5473 98.946 31.5518C98.4444 31.7503 97.945 31.8508 97.4453 31.8508C95.443 31.8508 94.1438 30.505 93.5435 27.8135C93.3416 31.1032 91.8409 32.748 89.0414 32.748C87.8408 32.748 86.9404 32.0983 86.3401 30.8041C85.9394 29.8064 85.789 28.6594 85.8899 27.3649C85.8899 27.1641 85.9882 26.4677 86.19 25.2714C86.2887 24.2736 86.3401 23.3764 86.3401 22.5798C85.6389 23.5753 85.1395 24.8722 84.8394 26.4669C84.6379 27.5634 84.4387 28.6587 84.2391 29.7574C83.8381 31.5518 83.1886 32.4482 82.2882 32.4482C81.587 32.4482 80.9867 31.874 80.4874 30.7286C79.9854 29.5817 79.737 28.3593 79.737 27.065C79.737 25.668 79.8353 24.1237 80.0372 22.4295L80.3373 22.5791C80.2364 23.3757 80.1872 24.1727 80.1872 24.9708C80.1872 28.3589 80.8862 30.0557 82.2882 30.0557C82.7876 30.0557 83.2378 29.308 83.6388 27.8127C84.3374 25.3196 84.7385 23.8733 84.8394 23.4759C85.5384 21.7802 86.4388 20.6348 87.5407 20.037V21.9806C87.1396 24.572 86.9404 26.1679 86.9404 26.766C86.9404 28.957 87.7399 30.0557 89.3415 30.0557C90.3406 30.0557 91.2174 29.6561 91.9677 28.8594C92.7181 28.0606 93.0933 27.1144 93.0933 26.0183L92.0428 20.1869L92.7931 18.0935C93.2925 19.089 93.5926 19.8878 93.6935 20.4856C93.9937 22.1794 94.2421 23.9249 94.4439 25.7193C95.0442 28.2101 96.1438 29.4576 97.7454 29.4576C98.7442 29.4576 99.4454 29.0587 99.8464 28.2621C99.3448 27.1637 98.8454 26.068 98.3457 24.9716C97.6445 23.1776 97.2435 21.7806 97.1452 20.7854L96.6949 19.7383L97.2952 17.6449L99.3962 20.9346V21.6822C99.0961 21.4811 98.7959 21.2336 98.4958 20.9346C98.3949 21.1331 98.3949 21.2336 98.4958 21.2336C99.8956 24.4228 100.597 26.6168 100.597 27.8135C100.597 29.6079 100.196 30.8041 99.3962 31.4026C99.0961 32.3978 98.946 33.1454 98.946 33.6456C98.946 35.04 99.645 35.7394 101.047 35.7394C102.346 35.7394 104.297 34.1178 106.9 30.8796C109.5 27.6389 111.552 26.0198 113.053 26.0198C113.552 26.0198 114.253 26.3189 115.154 26.9166L115.904 25.1219C117.304 27.1148 121.457 28.9578 128.36 30.6542C136.262 32.4482 145.318 33.3454 155.522 33.3454C162.425 33.3454 170.027 32.7473 178.333 31.551C185.536 30.4527 192.039 29.1069 197.842 27.5136C197.641 27.8127 197.542 28.16 197.542 28.5604C197.542 29.1589 197.741 29.7054 198.142 30.2045C198.541 30.7024 198.991 30.9521 199.494 30.9521C200.492 30.9521 201.543 30.4523 202.644 29.4568L204.595 27.514L204.745 27.6636C204.745 27.8621 204.745 28.0609 204.745 28.2621C204.745 29.6561 205.245 30.3555 206.246 30.3555C206.745 30.3555 207.297 29.9073 207.896 29.0097C208.595 27.8135 209.097 27.1151 209.397 26.9159H209.547C209.547 27.1144 209.547 27.3133 209.547 27.5144C209.547 28.311 209.821 29.0333 210.372 29.6826C210.921 30.3293 211.446 30.6546 211.948 30.6546C212.947 30.6546 213.449 30.2553 213.449 29.4579C213.449 28.5615 212.698 26.7671 211.198 24.0755C209.596 21.1832 208.745 19.44 208.646 18.8419C208.546 18.6407 208.396 18.3671 208.196 18.0194C207.995 17.6688 207.896 17.4445 207.896 17.3465L208.346 15.1036L211.348 18.2434V18.8411L209.997 18.2426V18.5421C210.797 19.7379 211.596 20.9342 212.398 22.1308C213.799 24.6213 214.5 26.6168 214.5 28.1121ZM81.0877 34.8411C80.8862 34.6404 80.586 34.292 80.1872 33.7944L79.8871 34.5421C80.1872 34.7406 80.4874 34.8411 80.7875 34.8411C80.8862 34.8411 80.9867 34.8411 81.0877 34.8411ZM98.946 0C98.946 0.499813 98.7441 1.14729 98.3457 1.94393C97.945 2.7428 97.544 3.39028 97.1452 3.88785C97.7454 2.69159 98.0456 1.79402 98.0456 1.19626C91.8409 3.1914 86.5885 6.13084 82.2882 10.0187C82.2882 9.51888 82.3869 8.97196 82.5884 8.37421C84.2883 6.78093 86.889 5.08449 90.392 3.28972C93.6935 1.59589 96.5449 0.499813 98.946 0ZM92.6431 34.9907C92.6431 35.4882 92.4412 35.9858 92.0428 36.486C91.8409 36.1862 91.5926 36.0374 91.2924 36.0374C90.7908 36.0374 90.392 36.6841 90.0919 37.9813C89.9909 38.9764 89.8412 39.9742 89.6417 40.972C89.4398 40.2733 88.9405 39.2265 88.141 37.8318C88.04 38.4299 87.789 38.729 87.3906 38.729C86.4902 38.729 86.04 38.2288 86.04 37.2336C86.04 36.2359 86.4388 35.7383 87.2405 35.7383C88.04 35.7383 88.8395 36.785 89.6417 38.8781C90.141 35.289 90.8914 33.4953 91.8927 33.4953C92.3921 33.4953 92.6431 33.9929 92.6431 34.9907ZM92.9432 12.8598C92.9432 14.0561 92.493 14.6542 91.5926 14.6542C91.2924 14.6542 90.8914 14.4041 90.392 13.9065C90.1902 14.7032 89.7399 15.1028 89.0414 15.1028C88.4411 15.1028 88.0892 14.7032 87.9909 13.9065C87.9909 13.2079 87.9909 12.5607 87.9909 11.9626C87.789 12.2617 87.5898 12.5611 87.3906 12.8598V12.2617C87.5898 11.8628 88.04 11.2643 88.7412 10.4673C88.5394 12.4602 88.7412 13.4579 89.3415 13.4579C89.8412 13.4579 90.0919 13.1073 90.0919 12.4112C90.0919 12.2101 89.9909 11.612 89.7917 10.6168L90.392 9.86916C90.6921 10.2665 90.8422 10.9649 90.8422 11.9626C90.9409 12.6587 91.241 13.0093 91.7426 13.0093C92.0428 13.0093 92.1928 12.809 92.1928 12.4112C92.1928 12.3107 92.0428 11.6636 91.7426 10.4673L92.1928 9.27103C92.6922 10.5656 92.9432 11.7615 92.9432 12.8598ZM96.6949 11.215C96.6949 12.4112 96.4443 13.757 95.9446 15.2523C96.0433 14.4535 96.0947 13.5566 96.0947 12.5611C96.0947 10.7664 95.5435 9.36935 94.4439 8.37421L94.594 6.43028C95.1942 6.93009 95.694 7.67776 96.0947 8.67327C96.4931 9.66804 96.6949 10.5163 96.6949 11.215ZM104.799 23.6262C104.799 25.7193 104.597 27.3133 104.198 28.4112H103.898C103.997 26.2172 103.847 23.9252 103.448 21.5331L100.897 4.63589C100.695 3.64037 100.496 2.89271 100.297 2.3929L101.047 0.299065L103.598 5.23364V6.13084L102.398 4.78467C102.297 4.98579 102.248 5.1843 102.248 5.38318L104.799 21.3832C104.799 21.8807 104.799 22.6284 104.799 23.6262ZM114.403 33.9436C114.502 34.8407 114.302 35.3387 113.803 35.4389C113.503 35.4389 113.001 35.2385 112.302 34.8407C111.902 35.5372 111.301 36.4344 110.501 37.5323C109.301 38.8265 107.8 39.6744 105.999 40.0744L104.799 40.2239C106.098 39.6254 107.599 38.6766 109.301 37.3824C110.802 36.1858 111.8 35.0385 112.302 33.9428C112.701 33.1439 113.001 32.6953 113.203 32.597C113.702 32.5981 114.103 33.0467 114.403 33.9436ZM113.503 7.17757C113.503 7.57682 113.353 8.02617 113.053 8.52336C112.752 8.2243 112.501 8.07514 112.302 8.07514C111.8 8.07514 111.402 8.72411 111.102 10.0187C110.9 11.1151 110.75 12.1125 110.652 13.0093C110.45 12.311 109.951 11.3136 109.151 10.0187C109.05 10.5166 108.75 10.7664 108.251 10.7664C107.449 10.7664 107.051 10.3181 107.051 9.42056C107.051 8.32449 107.4 7.7757 108.101 7.7757C109.001 7.7757 109.801 8.8228 110.502 10.9159C111.102 7.3271 111.853 5.53271 112.753 5.53271C113.252 5.53271 113.503 6.08187 113.503 7.17757ZM113.953 15.4019L112.902 17.0467C112.301 17.2449 111.65 17.4441 110.951 17.6449C109.849 17.9439 109.301 18.3925 109.301 18.9907C109.8 20.8834 110.051 22.2292 110.051 23.0284C110.051 24.8228 109.999 25.8695 109.901 26.1682C109.901 25.0699 109.7 23.6497 109.301 21.9069C108.901 20.1615 108.7 19.04 108.7 18.5424C108.7 17.5447 109.024 16.8976 109.676 16.5985C110.325 16.2994 110.951 16.0493 111.552 15.8508C111.05 15.6497 110.652 15.5518 110.351 15.5518C110.45 15.5518 110.15 15.7499 109.452 16.1499L109.601 15.4022C109.8 15.1032 110.026 14.7293 110.277 14.2807C110.525 13.8321 110.802 13.6079 111.102 13.6079C111.702 13.6075 112.652 14.2056 113.953 15.4019ZM114.103 34.3925C113.703 33.794 113.252 33.6449 112.752 33.9436C113.252 34.3409 113.702 34.4905 114.103 34.3925ZM117.255 30.3551C116.954 30.1544 116.504 29.7058 115.903 29.0093C115.903 29.5069 116.028 30.0789 116.278 30.729C116.527 31.3761 116.804 31.7009 117.104 31.7009C117.203 31.7006 117.255 31.2523 117.255 30.3551ZM194.391 36.6355C193.889 36.6355 193.539 36.3361 193.34 35.7387C192.639 36.6355 191.989 37.0845 191.389 37.0845C191.188 37.0845 190.865 36.935 190.414 36.6363C189.964 36.3364 189.687 36.1869 189.588 36.1869C189.086 36.1869 188.137 36.4867 186.737 37.0841C184.935 37.8807 183.484 38.4789 182.384 38.8789C180.183 39.5746 177.781 39.9252 175.181 39.9252L175.032 39.6262C177.231 39.6262 179.432 39.1772 181.635 38.28C182.835 37.8804 184.535 37.0837 186.738 35.8879C188.337 34.991 189.488 34.5417 190.189 34.5417C190.388 34.5417 190.688 34.7402 191.089 35.1402C191.488 35.5376 191.839 35.7387 192.14 35.7387C192.538 35.7387 192.989 35.2385 193.491 34.2434L193.94 33.9436C193.839 34.7409 194.09 35.1402 194.691 35.1402C194.992 35.1402 195.292 34.64 195.591 33.6449L195.891 33.4957C195.891 35.5888 195.39 36.6355 194.391 36.6355ZM206.246 9.42056C206.246 9.81794 206.044 10.3178 205.645 10.9159C205.345 10.5163 205.094 10.3178 204.895 10.3178C204.393 10.3178 203.995 11.0135 203.694 12.4112C203.593 13.3084 203.444 14.2546 203.245 15.2523C202.944 14.554 202.442 13.5566 201.744 12.2617C201.642 12.7596 201.343 13.0093 200.844 13.0093C200.041 13.0093 199.643 12.5611 199.643 11.6636C199.643 10.5652 199.993 10.0187 200.694 10.0187C201.594 10.0187 202.393 11.0658 203.095 13.1589C203.695 9.57009 204.445 7.7757 205.346 7.7757C205.946 7.7757 206.246 8.32486 206.246 9.42056ZM205.046 20.9346C205.046 22.729 204.494 23.6262 203.395 23.6262C202.393 23.6262 201.894 23.077 201.894 21.9813C201.894 21.283 202.093 20.4348 202.495 19.4393C203.095 18.243 203.395 17.5447 203.395 17.3458C203.594 18.1424 203.644 18.6916 203.545 18.9903C204.544 19.5888 205.046 20.2359 205.046 20.9346ZM204.595 21.6822C204.195 21.1824 203.594 20.7854 202.795 20.486C202.494 20.9839 202.344 21.283 202.344 21.3832C202.344 21.8807 202.694 22.1308 203.395 22.1308C203.894 22.1308 204.295 21.9813 204.595 21.6822ZM212.099 35.8879L211.048 38.28L208.497 36.9335L209.548 34.5417L212.099 35.8879Z" fill="white"/>
</g>
</g>
<defs>
<clipPath id="clip0_686_1398">
<rect width="214" height="48" fill="white" transform="translate(0.5)"/>
</clipPath>
</defs>
</svg>
